<svg xmlns="http://www.w3.org/2000/svg" width="64" height="80" viewBox="0 0 64 80" fill="none">
  <defs>
    <linearGradient id="lanternGlow" x1="32" y1="6" x2="32" y2="74" gradientUnits="userSpaceOnUse">
      <stop offset="0" stop-color="#f97316" />
      <stop offset="0.5" stop-color="#fdba74" />
      <stop offset="1" stop-color="#fde68a" />
    </linearGradient>
    <linearGradient id="lanternShade" x1="12" y1="10" x2="52" y2="66" gradientUnits="userSpaceOnUse">
      <stop offset="0" stop-color="#ea580c" stop-opacity="0.6" />
      <stop offset="1" stop-color="#f59e0b" stop-opacity="0" />
    </linearGradient>
  </defs>
  <path
    d="M32 4C41 4 52 10 58 20C62 28 62 40 58 52C54 64 48 74 32 78C16 74 10 64 6 52C2 40 2 28 6 20C12 10 23 4 32 4Z"
    fill="url(#lanternGlow)"
  />
  <path
    d="M32 10C39 10 46 15 50 23C54 31 54 40 50 50C46 60 40 68 32 70C24 68 18 60 14 50C10 40 10 31 14 23C18 15 25 10 32 10Z"
    fill="url(#lanternShade)"
  />
  <path
    d="M18 58C22 64 27 68 32 70C37 68 42 64 46 58"
    stroke="#ea580c"
    stroke-width="2"
    stroke-linecap="round"
  />
  <path
    d="M20 24C23 30 24 38 24 48"
    stroke="#f59e0b"
    stroke-width="2"
    stroke-linecap="round"
    opacity="0.6"
  />
  <path
    d="M44 24C41 30 40 38 40 48"
    stroke="#f59e0b"
    stroke-width="2"
    stroke-linecap="round"
    opacity="0.6"
  />
  <ellipse cx="32" cy="56" rx="8" ry="6" fill="#f59e0b" opacity="0.5" />
  <path
    d="M32 50C35 50 38 52 40 56C38 60 35 62 32 62C29 62 26 60 24 56C26 52 29 50 32 50Z"
    fill="#f97316"
  />
</svg>
